<svg 
  xmlns="http://www.w3.org/2000/svg" viewBox="0 0 397 81">
  <g fill="#FFF">
    <path d="M44.149 7v15.988l16.533 16.597-16.533 16.598v16.216L76.7 39.745M37.397 63.458V39.701l-8.851-.003v7.816l-7.672-7.703 16.523-16.599V7L4.855 39.652l32.542 32.742zm78.207-48.39c-3.143-2.414-7.287-3.232-11.16-3.232-6.697 0-11.295 4.919-11.295 11.066 0 6.24 4.737 11.068 11.524 11.068 2.004 0 4.281-.364 6.103-1.184v-7.014h-5.604l-.226-.228v-4.828l.226-.227h10.705l.226.227v15.532c-3.415 2.232-7.331 3.28-11.43 3.28-9.793 0-17.536-7.288-17.536-16.627 0-9.107 7.515-16.623 17.307-16.623 4.328 0 8.244.592 11.389 2.596v5.967l-.229.227zm8.286 3.052c1.367-.683 3.189-1.366 5.695-1.366 5.009 0 9.199 2.96 9.199 9.11v12.751l-.229.228h-4.871l-.23-.228v-.683c-1.685 1.139-3.643 1.596-5.236 1.596-3.688 0-7.515-1.824-7.515-6.333 0-6.012 6.24-7.88 12.751-8.244 0-1.911-1.594-3.416-4.099-3.416-2.504 0-4.735.82-7.469 2.642l-.225-.228 2.229-5.829zm9.563 10.886c-4.78.228-7.284 1.64-7.284 3.644 0 1.412 1.137 2.095 2.687 2.095 1.594 0 3.004-.455 4.598-1.368v-4.371zm16.443-22.045l.227.228v11.159c1.412-.911 3.414-1.594 5.464-1.594 6.378 0 11.207 5.057 11.207 11.386 0 6.333-4.829 11.389-11.207 11.389-2.05 0-4.052-.685-5.464-1.596v.683l-.227.228h-4.828l-.228-.228V7.189l.228-.228h4.828zm.227 25.005c1.503 1.776 3.325 2.46 5.283 2.46 3.415 0 5.967-2.687 5.967-6.286 0-3.598-2.552-6.285-5.967-6.285-1.958 0-3.78.911-5.283 2.459v7.652zm27.098-14.528l.229.228v.683c1.594-.911 3.642-1.594 5.692-1.594 1.363 0 2.733.229 4.1.911l.229 5.329-.229.228c-1.366-1.139-3.234-1.368-4.373-1.368-2.094 0-4.192.865-5.419 2.277v14.484l-.229.228h-4.827l-.229-.228v-20.95l.229-.228h4.827zm17.124-9.109l3.325 3.279v.455l-3.325 3.327h-.457l-3.324-3.327v-.455l3.324-3.279h.457zm2.185 9.109l.229.228v20.951l-.229.228h-4.827l-.229-.228V17.666l.229-.228h4.827zm26.186 19.402c-2.046 1.366-5.235 2.688-8.467 2.688-6.971 0-12.117-5.149-12.117-11.571 0-6.194 4.326-11.204 11.021-11.204 6.06 0 9.84 5.192 9.84 10.567 0 .729 0 1.229-.231 1.913l-.361.229h-14.892c.635 3.323 3.229 5.283 6.74 5.283 2.776 0 5.782-1.093 8.242-3.28l.225.229v5.146zm-5.054-11.385c-.227-2.143-2.187-3.919-4.509-3.919-3.008 0-4.78 1.776-5.467 3.919h9.976zm15.027-18.494l.229.228v23.548c0 2.551 1.141 3.688 2.87 3.688 1.457 0 2.822-.456 4.191-1.822l.226.229v5.327c-1.137.685-2.914 1.369-4.508 1.369-5.24 0-8.063-3.236-8.063-8.473V7.189l.229-.228h4.826zm12.98 11.159c1.368-.683 3.189-1.366 5.694-1.366 5.013 0 9.2 2.96 9.2 9.11v12.751l-.227.228h-4.873l-.229-.228v-.683c-1.685 1.139-3.645 1.596-5.238 1.596-3.688 0-7.516-1.824-7.516-6.333 0-6.012 6.242-7.88 12.754-8.244 0-1.911-1.594-3.416-4.099-3.416-2.504 0-4.738.82-7.47 2.642l-.229-.228 2.233-5.829zm9.566 10.886c-4.783.228-7.288 1.64-7.288 3.644 0 1.412 1.138 2.095 2.687 2.095 1.595 0 3.008-.455 4.602-1.368v-4.371zm25.092-22.045l.227.228 8.975 23.821 9.019-23.821.227-.228h5.513l.227.228-12.207 31.427-.229.228h-5.055l-.226-.228-12.21-31.427.229-.228h5.51zm30.785 1.368l3.325 3.279v.455l-3.325 3.327h-.452l-3.325-3.327v-.455l3.325-3.279h.452zm2.188 9.109l.228.228v20.951l-.228.228h-4.829l-.226-.228V17.666l.226-.228h4.829zm8.517.682c1.363-.683 3.186-1.366 5.691-1.366 5.01 0 9.199 2.96 9.199 9.11v12.751l-.227.228h-4.874l-.227-.228v-.683c-1.688 1.139-3.643 1.596-5.236 1.596-3.692 0-7.517-1.824-7.517-6.333 0-6.012 6.238-7.88 12.753-8.244 0-1.911-1.596-3.416-4.101-3.416-2.506 0-4.735.82-7.47 2.642l-.226-.228 2.235-5.829zm9.564 10.886c-4.784.228-7.288 1.64-7.288 3.644 0 1.412 1.141 2.095 2.688 2.095 1.593 0 3.005-.455 4.601-1.368v-4.371zm16.44-11.568l.224.228v.683c1.598-.911 3.646-1.594 5.696-1.594 6.83 0 10.246 3.873 10.246 10.02v11.842l-.227.228h-4.829l-.226-.228v-11.25c0-3.644-1.821-5.511-5.237-5.511-2.099 0-4.192.865-5.424 2.277v14.484l-.224.228h-4.827l-.229-.228V17.666l.229-.228h4.828zm23.999.682c1.368-.683 3.187-1.366 5.692-1.366 5.012 0 9.201 2.96 9.201 9.11v12.751l-.227.228h-4.874l-.227-.228v-.683c-1.685 1.139-3.646 1.596-5.238 1.596-3.69 0-7.515-1.824-7.515-6.333 0-6.012 6.24-7.88 12.753-8.244 0-1.911-1.594-3.416-4.1-3.416-2.504 0-4.738.82-7.47 2.642l-.228-.228 2.233-5.829zm9.567 10.886c-4.783.228-7.287 1.64-7.287 3.644 0 1.412 1.136 2.095 2.685 2.095 1.596 0 3.009-.455 4.603-1.368v-4.371z"/>
    <path d="M92.844 49.496c3.373 0 5.297 1.837 5.297 4.431 0 2.595-1.924 4.412-5.297 4.412h-2.811v6.183l-.108.108h-1.059l-.109-.108V49.604l.087-.108h4zm-2.81 7.588h2.811c2.422 0 3.87-1.189 3.87-3.157 0-1.966-1.448-3.178-3.87-3.178h-2.811v6.335zm11.672-2.616l.108.109v1.059c.865-.886 2.227-1.491 3.546-1.491.648 0 1.34.108 1.989.433l.108 1.253-.108.108c-.692-.541-1.448-.584-1.989-.584-1.363 0-2.832.714-3.546 1.816v7.351l-.108.108h-1.059l-.109-.108v-9.945l.109-.109h1.059zm17.552 5.081c0 3.027-2.334 5.406-5.297 5.406-2.962 0-5.296-2.379-5.296-5.406 0-3.026 2.334-5.404 5.296-5.404s5.297 2.377 5.297 5.404zm-9.253 0c0 2.4 1.729 4.195 3.956 4.195s3.957-1.794 3.957-4.195c0-2.399-1.729-4.194-3.957-4.194-2.227-.001-3.956 1.795-3.956 4.194zm21.573-10.053l.109.108v14.918l-.109.108h-1.038l-.108-.108v-1.06c-.821.887-2.075 1.493-3.502 1.493-2.962 0-5.297-2.379-5.297-5.406 0-3.026 2.335-5.404 5.297-5.404 1.427 0 2.682.605 3.502 1.491v-6.032l.108-.108h1.038zm-1.146 7.675c-.821-1.102-2.075-1.816-3.502-1.816-2.227 0-3.957 1.795-3.957 4.194 0 2.4 1.729 4.195 3.957 4.195 1.427 0 2.682-.67 3.502-1.816v-4.757zm6.093-2.703l.108.109v5.297c0 2.508 1.146 3.87 3.437 3.87 1.362 0 2.833-.713 3.546-1.816v-7.35l.108-.109h1.038l.108.109v9.945l-.108.108h-1.038l-.108-.108v-1.06c-.887.887-2.248 1.493-3.546 1.493-3.135 0-4.713-1.839-4.713-4.973v-5.405l.108-.109h1.06zm20.339 2.119c-1.146-.908-2.161-1.232-3.35-1.232-2.444 0-4.173 1.837-4.173 4.194s1.729 4.195 4.173 4.195c1.189 0 2.205-.325 3.35-1.232l.109.108v1.254c-.866.648-2.055 1.082-3.459 1.082-3.287 0-5.514-2.422-5.514-5.406 0-2.983 2.227-5.404 5.514-5.404 1.405 0 2.594.433 3.459 1.081v1.253l-.109.107zm4.84-4.713l.108.13v2.464h4.346l.108.109v1.038l-.108.108h-4.346v5.253c0 2.055.973 2.768 2.075 2.768.605 0 1.471-.13 2.271-.692l.108.108v1.146c-.626.389-1.6.65-2.378.65-2.053 0-3.351-1.298-3.351-3.871v-5.361h-1.73l-.108-.108v-1.038l.108-.109h1.73v-2.486l.108-.108h1.059zm16.858-2.378c4.649 0 8 3.352 8 7.567 0 4.216-3.35 7.567-8 7.567h-4.193l-.109-.108V49.604l.109-.108h4.193zm-3.026 13.88h3.027c3.74 0 6.551-2.79 6.551-6.313 0-3.523-2.811-6.313-6.551-6.313h-3.027v12.626zm22.804.173c-.821.648-2.335 1.406-3.891 1.406-3.244 0-5.514-2.508-5.514-5.514 0-2.941 2.011-5.296 5.081-5.296 2.919 0 4.433 2.55 4.433 4.951 0 .108 0 .303-.109.541l-.216.108h-7.87c.129 2.249 1.73 4 4.195 4 1.34 0 2.745-.584 3.783-1.556l.108.108v1.252zm-1.167-4.843c-.108-1.924-1.34-3.352-3.157-3.352-2.14 0-3.481 1.471-3.74 3.352h6.897zm10.46-2.357a5.586 5.586 0 0 0-3.243-.995c-1.318 0-2.227.714-2.227 1.644 0 2.399 6.313.995 6.313 4.821 0 1.794-1.665 3.136-3.978 3.136-1.298 0-2.639-.261-3.676-.909v-1.232l.108-.108c1.189.779 2.379 1.038 3.568 1.038 1.686 0 2.658-.779 2.658-1.924 0-2.508-6.334-1.146-6.334-4.821 0-1.622 1.514-2.854 3.567-2.854 1.298 0 2.487.324 3.351.864v1.232l-.107.108zm4.646-5.492l.887.909v.216l-.887.887h-.217l-.908-.887v-.216l.908-.909h.217zm.41 3.611l.108.109v9.945l-.108.108h-1.059l-.109-.108v-9.945l.109-.109h1.059zm12.43.087v1.081l-.108.087h-1.686c.626.626 1.038 1.469 1.038 2.421 0 2.227-1.729 4-4.108 4a3.85 3.85 0 0 1-1.881-.476c-.217.195-.325.389-.325.648 0 1.622 7.178 1.081 7.178 4.865 0 1.815-1.773 3.178-4.777 3.178-3.005 0-5.146-.8-5.146-3.07 0-1.406 1.383-2.465 2.682-3.308-.65-.346-1.168-.8-1.168-1.514 0-.475.238-.995.713-1.361-.864-.735-1.384-1.773-1.384-2.962 0-2.206 1.839-4 4.109-4 .562 0 1.124.129 1.621.324h3.136l.106.087zm-8.497 12.735c0 1.319 1.405 1.902 3.828 1.902 2.312 0 3.437-.93 3.437-2.01 0-1.729-3.157-2.185-4.821-2.746-.801.453-2.444 1.621-2.444 2.854zm.822-9.146c0 1.556 1.253 2.832 2.811 2.832a2.842 2.842 0 0 0 2.832-2.832 2.843 2.843 0 0 0-2.832-2.833c-1.557 0-2.811 1.276-2.811 2.833zm11.433-3.676l.108.109v1.059c.865-.886 2.227-1.491 3.546-1.491 3.134 0 4.692 1.837 4.692 4.972v5.406l-.108.108h-1.038l-.109-.108v-5.296c0-2.508-1.146-3.871-3.437-3.871-1.363 0-2.832.714-3.546 1.816v7.351l-.108.108h-1.059l-.109-.108v-9.945l.109-.109h1.059zm20.665 9.081c-.821.648-2.335 1.406-3.891 1.406-3.243 0-5.514-2.508-5.514-5.514 0-2.941 2.011-5.296 5.081-5.296 2.919 0 4.433 2.55 4.433 4.951 0 .108 0 .303-.109.541l-.216.108h-7.87c.129 2.249 1.729 4 4.194 4 1.34 0 2.745-.584 3.783-1.556l.108.108v1.252zm-1.167-4.843c-.108-1.924-1.34-3.352-3.157-3.352-2.14 0-3.481 1.471-3.741 3.352h6.898zm5.465-4.238l.108.109v1.059c.865-.886 2.227-1.491 3.546-1.491.648 0 1.34.108 1.989.433l.108 1.253-.108.108c-.692-.541-1.448-.584-1.989-.584-1.363 0-2.832.714-3.546 1.816v7.351l-.108.108h-1.059l-.109-.108v-9.945l.109-.109h1.059z" stroke="#FFF" stroke-miterlimit="10"/>
  </g>
</svg>