<?xml version="1.0" encoding="utf-8"?>
<!DOCTYPE svg PUBLIC "-//W3C//DTD SVG 1.1//EN" "http://www.w3.org/Graphics/SVG/1.1/DTD/svg11.dtd">
<svg version="1.1" id="Layer_1" xmlns="http://www.w3.org/2000/svg" xmlns:xlink="http://www.w3.org/1999/xlink" x="0px" y="0px" viewBox="0 0 394.105 81" xml:space="preserve">
<g>
	<g>
		<polyline fill="#FFFFFF" points="39.294,0 39.294,15.988 55.826,32.585 39.294,49.183 39.294,65.399 71.845,32.745"/>
		<polygon fill="#FFFFFF" points="32.542,56.458 32.542,49.405 32.542,32.701 23.69,32.698 23.69,40.514 16.019,32.811 
			32.542,16.212 32.542,0 0,32.652 32.542,65.394 		"/>
	</g>
	<g>
		<path fill="#FFFFFF" d="M110.749,15.068c-3.143-2.414-7.287-3.232-11.16-3.232c-6.697,0-11.295,4.919-11.295,11.066
			c0,6.24,4.737,11.068,11.524,11.068c2.004,0,4.281-0.364,6.103-1.184v-7.014h-5.604l-0.226-0.228v-4.828l0.226-0.227h10.705
			l0.226,0.227v15.532c-3.415,2.232-7.331,3.28-11.43,3.28c-9.793,0-17.536-7.288-17.536-16.627c0-9.107,7.515-16.623,17.307-16.623
			c4.328,0,8.244,0.592,11.389,2.596v5.967L110.749,15.068z"/>
		<path fill="#FFFFFF" d="M119.034,18.12c1.367-0.683,3.189-1.366,5.695-1.366c5.009,0,9.199,2.96,9.199,9.11v12.751l-0.229,0.228
			h-4.871l-0.23-0.228v-0.683c-1.685,1.139-3.643,1.596-5.236,1.596c-3.688,0-7.515-1.824-7.515-6.333
			c0-6.012,6.24-7.88,12.751-8.244c0-1.911-1.594-3.416-4.099-3.416c-2.504,0-4.735,0.82-7.469,2.642l-0.225-0.228L119.034,18.12z
			 M128.598,29.006c-4.78,0.228-7.284,1.64-7.284,3.644c0,1.412,1.137,2.095,2.687,2.095c1.594,0,3.004-0.455,4.598-1.368V29.006z"
			/>
		<path fill="#FFFFFF" d="M145.041,6.961l0.227,0.228v11.159c1.412-0.911,3.414-1.594,5.464-1.594
			c6.378,0,11.207,5.057,11.207,11.386c0,6.333-4.829,11.389-11.207,11.389c-2.05,0-4.052-0.685-5.464-1.596v0.683l-0.227,0.228
			h-4.828l-0.228-0.228V7.189l0.228-0.228H145.041z M145.268,31.966c1.503,1.776,3.325,2.46,5.283,2.46
			c3.415,0,5.967-2.687,5.967-6.286c0-3.598-2.552-6.285-5.967-6.285c-1.958,0-3.78,0.911-5.283,2.459V31.966z"/>
		<path fill="#FFFFFF" d="M172.365,17.438l0.229,0.228v0.683c1.594-0.911,3.642-1.594,5.692-1.594c1.363,0,2.733,0.229,4.1,0.911
			l0.229,5.329l-0.229,0.228c-1.366-1.139-3.234-1.368-4.373-1.368c-2.094,0-4.192,0.865-5.419,2.277v14.484l-0.229,0.228h-4.827
			l-0.229-0.228V17.666l0.229-0.228H172.365z"/>
		<path fill="#FFFFFF" d="M189.489,8.329l3.325,3.279v0.455l-3.325,3.327h-0.457l-3.324-3.327v-0.455l3.324-3.279H189.489z
			 M191.675,17.438l0.229,0.228v20.951l-0.229,0.228h-4.827l-0.229-0.228V17.666l0.229-0.228H191.675z"/>
		<path fill="#FFFFFF" d="M217.86,36.84c-2.046,1.366-5.235,2.688-8.467,2.688c-6.971,0-12.117-5.149-12.117-11.571
			c0-6.194,4.326-11.204,11.021-11.204c6.06,0,9.84,5.192,9.84,10.567c0,0.729,0,1.229-0.231,1.913l-0.361,0.229h-14.892
			c0.635,3.323,3.229,5.283,6.74,5.283c2.776,0,5.782-1.093,8.242-3.28l0.225,0.229V36.84z M212.807,25.455
			c-0.227-2.143-2.187-3.919-4.509-3.919c-3.008,0-4.78,1.776-5.467,3.919H212.807z"/>
		<path fill="#FFFFFF" d="M227.834,6.961l0.229,0.228v23.548c0,2.551,1.141,3.688,2.87,3.688c1.457,0,2.822-0.456,4.191-1.822
			l0.226,0.229v5.327c-1.137,0.685-2.914,1.369-4.508,1.369c-5.24,0-8.063-3.236-8.063-8.473V7.189l0.229-0.228H227.834z"/>
		<path fill="#FFFFFF" d="M240.813,18.12c1.368-0.683,3.189-1.366,5.694-1.366c5.013,0,9.2,2.96,9.2,9.11v12.751l-0.227,0.228
			h-4.873l-0.229-0.228v-0.683c-1.685,1.139-3.645,1.596-5.238,1.596c-3.688,0-7.516-1.824-7.516-6.333
			c0-6.012,6.242-7.88,12.754-8.244c0-1.911-1.594-3.416-4.099-3.416c-2.504,0-4.738,0.82-7.47,2.642l-0.229-0.228L240.813,18.12z
			 M250.38,29.006c-4.783,0.228-7.288,1.64-7.288,3.644c0,1.412,1.138,2.095,2.687,2.095c1.595,0,3.008-0.455,4.602-1.368V29.006z"
			/>
		<path fill="#FFFFFF" d="M275.472,6.961l0.227,0.228l8.975,23.821l9.019-23.821l0.227-0.228h5.513l0.227,0.228L287.45,38.616
			l-0.229,0.228h-5.055l-0.226-0.228l-12.21-31.427l0.229-0.228H275.472z"/>
		<path fill="#FFFFFF" d="M306.257,8.329l3.325,3.279v0.455l-3.325,3.327h-0.452l-3.325-3.327v-0.455l3.325-3.279H306.257z
			 M308.444,17.438l0.228,0.228v20.951l-0.228,0.228h-4.829l-0.226-0.228V17.666l0.226-0.228H308.444z"/>
		<path fill="#FFFFFF" d="M316.962,18.12c1.363-0.683,3.186-1.366,5.691-1.366c5.01,0,9.199,2.96,9.199,9.11v12.751l-0.227,0.228
			h-4.874l-0.227-0.228v-0.683c-1.688,1.139-3.643,1.596-5.236,1.596c-3.692,0-7.517-1.824-7.517-6.333
			c0-6.012,6.238-7.88,12.753-8.244c0-1.911-1.596-3.416-4.101-3.416c-2.506,0-4.735,0.82-7.47,2.642l-0.226-0.228L316.962,18.12z
			 M326.525,29.006c-4.784,0.228-7.288,1.64-7.288,3.644c0,1.412,1.141,2.095,2.688,2.095c1.593,0,3.005-0.455,4.601-1.368V29.006z"
			/>
		<path fill="#FFFFFF" d="M342.966,17.438l0.224,0.228v0.683c1.598-0.911,3.646-1.594,5.696-1.594c6.83,0,10.246,3.873,10.246,10.02
			v11.842l-0.227,0.228h-4.829l-0.226-0.228v-11.25c0-3.644-1.821-5.511-5.237-5.511c-2.099,0-4.192,0.865-5.424,2.277v14.484
			l-0.224,0.228h-4.827l-0.229-0.228V17.666l0.229-0.228H342.966z"/>
		<path fill="#FFFFFF" d="M366.965,18.12c1.368-0.683,3.187-1.366,5.692-1.366c5.012,0,9.201,2.96,9.201,9.11v12.751l-0.227,0.228
			h-4.874l-0.227-0.228v-0.683c-1.685,1.139-3.646,1.596-5.238,1.596c-3.69,0-7.515-1.824-7.515-6.333
			c0-6.012,6.24-7.88,12.753-8.244c0-1.911-1.594-3.416-4.1-3.416c-2.504,0-4.738,0.82-7.47,2.642l-0.228-0.228L366.965,18.12z
			 M376.531,29.006c-4.783,0.228-7.287,1.64-7.287,3.644c0,1.412,1.136,2.095,2.685,2.095c1.596,0,3.009-0.455,4.603-1.368V29.006z"
			/>
	</g>
	<g>
		<path fill="#FFFFFF" d="M84.875,49.496l0.09,0.09v6.752c0,3.169,1.711,4.934,4.159,4.934c2.431,0,4.142-1.765,4.142-4.934v-6.752
			l0.09-0.09h0.882l0.091,0.09v6.932c0,3.691-2.143,5.853-5.204,5.853c-3.061,0-5.222-2.161-5.222-5.853v-6.932l0.091-0.09H84.875z"
			/>
		<path fill="#FFFFFF" d="M131.537,49.496l0.09,0.09V62.01l-0.09,0.09h-0.882l-0.091-0.09V49.586l0.091-0.09H131.537z"/>
		<path fill="#FFFFFF" d="M114.197,47.496l0.091,0.09l-3.602,16.925l-0.09,0.09h-0.9l-0.09-0.09l3.601-16.925l0.09-0.09H114.197z"/>
		<path fill="#FFFFFF" d="M118.221,49.496l0.09,0.09v6.752c0,3.169,1.711,4.934,4.159,4.934c2.431,0,4.142-1.765,4.142-4.934v-6.752
			l0.09-0.09h0.882l0.091,0.09v6.932c0,3.691-2.143,5.853-5.204,5.853c-3.061,0-5.222-2.161-5.222-5.853v-6.932l0.091-0.09H118.221z
			"/>
		<path fill="#FFFFFF" d="M97.604,49.496l0.181,0.09l3.979,5.041l3.997-5.041l0.18-0.09h1.135l0.09,0.09l-4.718,5.924l5.149,6.5
			l-0.09,0.09h-1.116l-0.18-0.09l-4.447-5.618l-4.43,5.618l-0.18,0.09h-1.135l-0.09-0.09l5.167-6.5l-4.717-5.924l0.09-0.09H97.604z"
			/>
		<path fill="#FFFFFF" d="M141.855,49.496c3.872,0,6.662,2.791,6.662,6.302s-2.79,6.302-6.662,6.302h-3.492l-0.091-0.09V49.586
			l0.091-0.09H141.855z M139.335,61.056h2.521c3.115,0,5.456-2.323,5.456-5.258s-2.341-5.258-5.456-5.258h-2.521V61.056z"/>
		<path fill="#FFFFFF" d="M158.326,61.199c-0.684,0.54-1.944,1.171-3.24,1.171c-2.701,0-4.592-2.089-4.592-4.592
			c0-2.449,1.675-4.411,4.231-4.411c2.431,0,3.691,2.124,3.691,4.123c0,0.09,0,0.252-0.091,0.45l-0.18,0.09h-6.554
			c0.107,1.873,1.44,3.331,3.493,3.331c1.116,0,2.286-0.486,3.15-1.296l0.09,0.09V61.199z M157.354,57.166
			c-0.09-1.603-1.116-2.791-2.629-2.791c-1.782,0-2.899,1.225-3.115,2.791H157.354z"/>
		<path fill="#FFFFFF" d="M166.065,55.203c-0.9-0.611-1.801-0.828-2.701-0.828c-1.098,0-1.854,0.595-1.854,1.369
			c0,1.998,5.258,0.828,5.258,4.015c0,1.494-1.387,2.611-3.312,2.611c-1.081,0-2.197-0.217-3.062-0.757v-1.026l0.09-0.09
			c0.99,0.648,1.981,0.864,2.972,0.864c1.404,0,2.214-0.648,2.214-1.603c0-2.089-5.275-0.954-5.275-4.015
			c0-1.351,1.261-2.377,2.971-2.377c1.081,0,2.071,0.27,2.791,0.72v1.026L166.065,55.203z"/>
		<path fill="#FFFFFF" d="M169.935,50.63l0.738,0.757v0.18l-0.738,0.738h-0.181l-0.756-0.738v-0.18l0.756-0.757H169.935z
			 M170.276,53.637l0.09,0.091v8.282l-0.09,0.09h-0.882l-0.091-0.09v-8.282l0.091-0.091H170.276z"/>
		<path fill="#FFFFFF" d="M180.628,53.709v0.9l-0.09,0.072h-1.404c0.521,0.521,0.864,1.224,0.864,2.017
			c0,1.854-1.44,3.331-3.421,3.331c-0.576,0-1.117-0.145-1.566-0.396c-0.181,0.162-0.271,0.324-0.271,0.54
			c0,1.351,5.978,0.9,5.978,4.052c0,1.512-1.477,2.646-3.979,2.646c-2.503,0-4.286-0.666-4.286-2.557
			c0-1.171,1.152-2.053,2.233-2.755c-0.541-0.288-0.973-0.666-0.973-1.261c0-0.396,0.198-0.828,0.594-1.134
			c-0.72-0.612-1.152-1.477-1.152-2.467c0-1.837,1.531-3.331,3.422-3.331c0.468,0,0.936,0.107,1.35,0.27h2.611L180.628,53.709z
			 M173.552,64.314c0,1.099,1.17,1.584,3.188,1.584c1.926,0,2.862-0.774,2.862-1.674c0-1.44-2.629-1.819-4.015-2.287
			C174.92,62.315,173.552,63.288,173.552,64.314z M174.236,56.698c0,1.296,1.044,2.358,2.341,2.358c1.296,0,2.358-1.062,2.358-2.358
			c0-1.297-1.062-2.359-2.358-2.359C175.28,54.339,174.236,55.401,174.236,56.698z"/>
		<path fill="#FFFFFF" d="M183.758,53.637l0.09,0.091v0.882c0.721-0.738,1.854-1.242,2.953-1.242c2.61,0,3.907,1.53,3.907,4.141
			v4.502l-0.09,0.09h-0.864l-0.091-0.09v-4.411c0-2.089-0.954-3.224-2.862-3.224c-1.135,0-2.358,0.595-2.953,1.513v6.122l-0.09,0.09
			h-0.882l-0.091-0.09v-8.282l0.091-0.091H183.758z"/>
		<path fill="#FFFFFF" d="M200.967,61.199c-0.684,0.54-1.944,1.171-3.24,1.171c-2.701,0-4.592-2.089-4.592-4.592
			c0-2.449,1.675-4.411,4.231-4.411c2.431,0,3.691,2.124,3.691,4.123c0,0.09,0,0.252-0.091,0.45l-0.18,0.09h-6.554
			c0.107,1.873,1.44,3.331,3.493,3.331c1.116,0,2.286-0.486,3.15-1.296l0.09,0.09V61.199z M199.995,57.166
			c-0.09-1.603-1.116-2.791-2.629-2.791c-1.782,0-2.899,1.225-3.115,2.791H199.995z"/>
		<path fill="#FFFFFF" d="M204.547,53.637l0.09,0.091v0.882c0.721-0.738,1.854-1.242,2.953-1.242c0.54,0,1.116,0.09,1.656,0.36
			l0.09,1.044l-0.09,0.09c-0.576-0.45-1.206-0.486-1.656-0.486c-1.135,0-2.358,0.595-2.953,1.513v6.122l-0.09,0.09h-0.882
			l-0.091-0.09v-8.282l0.091-0.091H204.547z"/>
	</g>
</g>
</svg>
