<?xml version="1.0" encoding="utf-8"?>
<!-- Generator: Adobe Illustrator 16.0.0, SVG Export Plug-In . SVG Version: 6.00 Build 0)  -->
<!DOCTYPE svg PUBLIC "-//W3C//DTD SVG 1.1//EN" "http://www.w3.org/Graphics/SVG/1.1/DTD/svg11.dtd">
<svg version="1.1" id="Layer_1" xmlns="http://www.w3.org/2000/svg" xmlns:xlink="http://www.w3.org/1999/xlink" x="0px" y="0px"
	 width="465.08px" height="81px" viewBox="0 0 465.08 81" enable-background="new 0 0 465.08 81" xml:space="preserve">
<g>
	<g>
		<polyline fill="#FFFFFF" points="44.149,0 44.149,15.988 60.682,32.585 44.149,49.183 44.149,65.399 76.7,32.745 		"/>
		<polygon fill="#FFFFFF" points="37.397,56.458 37.397,49.405 37.397,32.701 28.546,32.698 28.546,40.514 20.874,32.811 
			37.397,16.212 37.397,0 4.855,32.652 37.397,65.394 		"/>
	</g>
	<g>
		<path fill="#FFFFFF" d="M115.604,15.068c-3.143-2.414-7.287-3.232-11.16-3.232c-6.697,0-11.295,4.919-11.295,11.066
			c0,6.24,4.737,11.068,11.524,11.068c2.004,0,4.281-0.364,6.103-1.184v-7.014h-5.604l-0.226-0.228v-4.828l0.226-0.227h10.705
			l0.226,0.227v15.532c-3.415,2.232-7.331,3.28-11.43,3.28c-9.793,0-17.536-7.288-17.536-16.627c0-9.107,7.515-16.623,17.307-16.623
			c4.328,0,8.244,0.592,11.389,2.596v5.967L115.604,15.068z"/>
		<path fill="#FFFFFF" d="M123.89,18.12c1.367-0.683,3.189-1.366,5.695-1.366c5.009,0,9.199,2.96,9.199,9.11v12.751l-0.229,0.228
			h-4.871l-0.23-0.228v-0.683c-1.685,1.139-3.643,1.596-5.236,1.596c-3.688,0-7.515-1.824-7.515-6.333
			c0-6.012,6.24-7.88,12.751-8.244c0-1.911-1.594-3.416-4.099-3.416c-2.504,0-4.735,0.82-7.469,2.642l-0.225-0.228L123.89,18.12z
			 M133.453,29.006c-4.78,0.228-7.284,1.64-7.284,3.644c0,1.412,1.137,2.095,2.687,2.095c1.594,0,3.004-0.455,4.598-1.368V29.006z"
			/>
		<path fill="#FFFFFF" d="M149.896,6.961l0.227,0.228v11.159c1.412-0.911,3.414-1.594,5.464-1.594
			c6.378,0,11.207,5.057,11.207,11.386c0,6.333-4.829,11.389-11.207,11.389c-2.05,0-4.052-0.685-5.464-1.596v0.683l-0.227,0.228
			h-4.828l-0.228-0.228V7.189l0.228-0.228H149.896z M150.123,31.966c1.503,1.776,3.325,2.46,5.283,2.46
			c3.415,0,5.967-2.687,5.967-6.286c0-3.598-2.552-6.285-5.967-6.285c-1.958,0-3.78,0.911-5.283,2.459V31.966z"/>
		<path fill="#FFFFFF" d="M177.221,17.438l0.229,0.228v0.683c1.594-0.911,3.642-1.594,5.692-1.594c1.363,0,2.733,0.229,4.1,0.911
			l0.229,5.329l-0.229,0.228c-1.366-1.139-3.234-1.368-4.373-1.368c-2.094,0-4.192,0.865-5.419,2.277v14.484l-0.229,0.228h-4.827
			l-0.229-0.228V17.666l0.229-0.228H177.221z"/>
		<path fill="#FFFFFF" d="M194.345,8.329l3.325,3.279v0.455l-3.325,3.327h-0.457l-3.324-3.327v-0.455l3.324-3.279H194.345z
			 M196.53,17.438l0.229,0.228v20.951l-0.229,0.228h-4.827l-0.229-0.228V17.666l0.229-0.228H196.53z"/>
		<path fill="#FFFFFF" d="M222.716,36.84c-2.046,1.366-5.235,2.688-8.467,2.688c-6.971,0-12.117-5.149-12.117-11.571
			c0-6.194,4.326-11.204,11.021-11.204c6.06,0,9.84,5.192,9.84,10.567c0,0.729,0,1.229-0.231,1.913l-0.361,0.229h-14.892
			c0.635,3.323,3.229,5.283,6.74,5.283c2.776,0,5.782-1.093,8.242-3.28l0.225,0.229V36.84z M217.662,25.455
			c-0.227-2.143-2.187-3.919-4.509-3.919c-3.008,0-4.78,1.776-5.467,3.919H217.662z"/>
		<path fill="#FFFFFF" d="M232.689,6.961l0.229,0.228v23.548c0,2.551,1.141,3.688,2.87,3.688c1.457,0,2.822-0.456,4.191-1.822
			l0.226,0.229v5.327c-1.137,0.685-2.914,1.369-4.508,1.369c-5.24,0-8.063-3.236-8.063-8.473V7.189l0.229-0.228H232.689z"/>
		<path fill="#FFFFFF" d="M245.669,18.12c1.368-0.683,3.189-1.366,5.694-1.366c5.013,0,9.2,2.96,9.2,9.11v12.751l-0.227,0.228
			h-4.873l-0.229-0.228v-0.683c-1.685,1.139-3.645,1.596-5.238,1.596c-3.688,0-7.516-1.824-7.516-6.333
			c0-6.012,6.242-7.88,12.754-8.244c0-1.911-1.594-3.416-4.099-3.416c-2.504,0-4.738,0.82-7.47,2.642l-0.229-0.228L245.669,18.12z
			 M255.235,29.006c-4.783,0.228-7.288,1.64-7.288,3.644c0,1.412,1.138,2.095,2.687,2.095c1.595,0,3.008-0.455,4.602-1.368V29.006z"
			/>
		<path fill="#FFFFFF" d="M280.327,6.961l0.227,0.228l8.975,23.821l9.019-23.821l0.227-0.228h5.513l0.227,0.228l-12.207,31.427
			l-0.229,0.228h-5.055l-0.226-0.228l-12.21-31.427l0.229-0.228H280.327z"/>
		<path fill="#FFFFFF" d="M311.112,8.329l3.325,3.279v0.455l-3.325,3.327h-0.452l-3.325-3.327v-0.455l3.325-3.279H311.112z
			 M313.3,17.438l0.228,0.228v20.951l-0.228,0.228h-4.829l-0.226-0.228V17.666l0.226-0.228H313.3z"/>
		<path fill="#FFFFFF" d="M321.817,18.12c1.363-0.683,3.186-1.366,5.691-1.366c5.01,0,9.199,2.96,9.199,9.11v12.751l-0.227,0.228
			h-4.874l-0.227-0.228v-0.683c-1.688,1.139-3.643,1.596-5.236,1.596c-3.692,0-7.517-1.824-7.517-6.333
			c0-6.012,6.238-7.88,12.753-8.244c0-1.911-1.596-3.416-4.101-3.416c-2.506,0-4.735,0.82-7.47,2.642l-0.226-0.228L321.817,18.12z
			 M331.381,29.006c-4.784,0.228-7.288,1.64-7.288,3.644c0,1.412,1.141,2.095,2.688,2.095c1.593,0,3.005-0.455,4.601-1.368V29.006z"
			/>
		<path fill="#FFFFFF" d="M347.821,17.438l0.224,0.228v0.683c1.598-0.911,3.646-1.594,5.696-1.594c6.83,0,10.246,3.873,10.246,10.02
			v11.842l-0.227,0.228h-4.829l-0.226-0.228v-11.25c0-3.644-1.821-5.511-5.237-5.511c-2.099,0-4.192,0.865-5.424,2.277v14.484
			l-0.224,0.228h-4.827l-0.229-0.228V17.666l0.229-0.228H347.821z"/>
		<path fill="#FFFFFF" d="M371.82,18.12c1.368-0.683,3.187-1.366,5.692-1.366c5.012,0,9.201,2.96,9.201,9.11v12.751l-0.227,0.228
			h-4.874l-0.227-0.228v-0.683c-1.685,1.139-3.646,1.596-5.238,1.596c-3.69,0-7.515-1.824-7.515-6.333
			c0-6.012,6.24-7.88,12.753-8.244c0-1.911-1.594-3.416-4.1-3.416c-2.504,0-4.738,0.82-7.47,2.642l-0.228-0.228L371.82,18.12z
			 M381.387,29.006c-4.783,0.228-7.287,1.64-7.287,3.644c0,1.412,1.136,2.095,2.685,2.095c1.596,0,3.009-0.455,4.603-1.368V29.006z"
			/>
	</g>
	<rect x="87.138" y="49.5" fill="none" width="377.942" height="31.5"/>
	<text transform="matrix(1 0 0 1 87.1377 62.0996)" fill="#FFFFFF" font-family="'P22UndergroundCYLight'" font-size="18">Product Designer</text>
</g>
</svg>
